<svg xmlns="http://www.w3.org/2000/svg" xmlns:xlink="http://www.w3.org/1999/xlink" version="1.1" width="1178px" height="373px" style="shape-rendering:geometricPrecision; text-rendering:geometricPrecision; image-rendering:optimizeQuality; fill-rule:evenodd; clip-rule:evenodd">
<g><path style="opacity:1" fill="#ffffff" d="M 432.5,158.5 C 432.335,162.182 432.501,165.848 433,169.5C 433.198,167.618 433.698,165.952 434.5,164.5C 436.217,173.69 437.384,183.024 438,192.5C 440.255,199.99 442.755,207.323 445.5,214.5C 443.208,214.756 441.041,214.423 439,213.5C 436.363,209.928 434.697,205.928 434,201.5C 432.956,192.706 431.29,184.039 429,175.5C 428.98,163.011 428.314,150.678 427,138.5C 419.66,149.849 410.827,160.015 400.5,169C 396.808,171.159 393.308,170.993 390,168.5C 386.213,153.881 387.88,139.881 395,126.5C 395.498,123.518 395.665,120.518 395.5,117.5C 394.5,117.5 393.5,117.5 392.5,117.5C 390.092,125.466 385.759,132.299 379.5,138C 373.865,140.941 370.532,139.441 369.5,133.5C 372.566,119.266 381.233,110.433 395.5,107C 399.694,102.306 404.361,98.139 409.5,94.5C 411.115,96.6215 411.615,98.9549 411,101.5C 399.377,121.695 393.043,143.361 392,166.5C 398.876,162.63 404.876,157.63 410,151.5C 415.667,144.5 421.333,137.5 427,130.5C 429.225,126.719 430.891,122.719 432,118.5C 432.427,112.473 433.093,106.473 434,100.5C 436.09,96.4006 437.256,92.0672 437.5,87.5C 418.967,90.5314 400.634,89.5314 382.5,84.5C 379.699,84.4641 377.865,85.7974 377,88.5C 368.119,104.929 359.785,121.596 352,138.5C 349.884,164.187 350.051,189.854 352.5,215.5C 356.717,217.091 359.05,220.091 359.5,224.5C 355.993,225.006 352.826,224.34 350,222.5C 347.045,214.68 344.712,206.68 343,198.5C 342.333,185.5 342.333,172.5 343,159.5C 345.607,152.738 347.107,145.738 347.5,138.5C 345.856,138.286 344.356,138.62 343,139.5C 336.299,149.874 328.466,159.374 319.5,168C 316.119,170.245 312.452,170.912 308.5,170C 306.805,165.004 305.805,159.837 305.5,154.5C 306.056,145.28 307.722,136.28 310.5,127.5C 310.564,125.611 310.064,123.944 309,122.5C 305.213,127.956 301.046,133.123 296.5,138C 292.002,138.293 287.835,139.46 284,141.5C 273.318,158.866 261.652,175.533 249,191.5C 243.46,198.707 236.96,204.874 229.5,210C 219.513,212.252 213.013,208.419 210,198.5C 206.968,186.972 204.801,175.305 203.5,163.5C 205.046,132.648 212.546,103.315 226,75.5C 232.932,63.4874 241.432,52.6541 251.5,43C 258.394,36.8798 266.394,34.2132 275.5,35C 279.125,37.2063 280.292,40.373 279,44.5C 276.641,50.8592 272.308,55.1925 266,57.5C 265.333,55.8333 265.333,54.1667 266,52.5C 269.416,48.9165 272.249,44.9165 274.5,40.5C 271.81,39.3977 269.143,39.5644 266.5,41C 253,49.1667 242.167,60 234,73.5C 219.202,101.157 211.369,130.657 210.5,162C 208.991,177.791 212.324,192.458 220.5,206C 223.93,206.459 226.93,205.459 229.5,203C 233.333,199.167 237.167,195.333 241,191.5C 259.07,167.694 276.403,143.361 293,118.5C 298.123,112.521 304.623,109.021 312.5,108C 316.535,104.3 320.202,100.3 323.5,96C 325.025,94.9914 326.692,94.4914 328.5,94.5C 328.078,101.363 325.911,107.696 322,113.5C 317.563,124.909 313.897,136.576 311,148.5C 310.333,153.833 310.333,159.167 311,164.5C 311.718,165.451 312.551,165.617 313.5,165C 325.684,152.814 337.184,139.981 348,126.5C 351.271,119.215 352.938,111.548 353,103.5C 354.485,106.3 356.151,108.966 358,111.5C 358.333,111.167 358.667,110.833 359,110.5C 357.471,106.559 356.304,102.392 355.5,98C 356.032,93.7372 357.365,89.7372 359.5,86C 359.01,84.018 358.01,82.3513 356.5,81C 341.167,80.3333 325.833,80.3333 310.5,81C 305.457,82.1775 300.457,83.5108 295.5,85C 291.945,88.1343 287.945,89.301 283.5,88.5C 286.419,81.5213 291.753,77.688 299.5,77C 307.157,75.9452 314.823,74.9452 322.5,74C 336.553,73.3865 350.553,73.8865 364.5,75.5C 367.46,62.9075 372.627,51.2409 380,40.5C 390.34,27.8265 395.34,29.8265 395,46.5C 392.062,55.3123 388.729,63.9789 385,72.5C 384.178,75.1168 383.678,77.7835 383.5,80.5C 395.848,80.3227 408.181,80.656 420.5,81.5C 427.522,80.979 434.522,80.3123 441.5,79.5C 445.656,61.6883 453.656,45.8549 465.5,32C 467.81,31.5034 470.143,31.3367 472.5,31.5C 473.778,36.1886 473.611,40.8552 472,45.5C 463.381,72.6915 452.048,98.6915 438,123.5C 433.024,134.651 431.19,146.318 432.5,158.5 Z"/></g>
<g><path style="opacity:1" fill="#006FEE" d="M 390.5,38.5 C 391.622,40.2884 391.789,42.2884 391,44.5C 387.057,54.9959 382.723,65.3293 378,75.5C 370.739,82.8188 368.073,81.1522 370,70.5C 373.333,63.8333 376.667,57.1667 380,50.5C 382.649,45.6887 386.149,41.6887 390.5,38.5 Z"/></g>
<g><path style="opacity:1" fill="#006FEE" d="M 461.5,43.5 C 462.496,43.4142 463.329,43.7476 464,44.5C 465.007,49.1113 464.34,53.4446 462,57.5C 461.667,56.8333 461.333,56.1667 461,55.5C 460.667,58.1667 460.333,60.8333 460,63.5C 455.259,77.2413 449.926,89.908 444,101.5C 441.844,97.7384 441.177,93.7384 442,89.5C 447.688,73.7943 454.188,58.4609 461.5,43.5 Z"/></g>
<g><path style="opacity:1" fill="#ffffff" d="M 858.5,119.5 C 858.688,117.897 858.188,116.563 857,115.5C 855.323,116.516 853.657,117.516 852,118.5C 844.581,114.458 839.581,116.458 837,124.5C 836.505,126.473 836.338,128.473 836.5,130.5C 837.5,130.5 838.5,130.5 839.5,130.5C 839.201,128.396 839.534,126.396 840.5,124.5C 841.736,125.246 843.07,125.579 844.5,125.5C 844.5,123.5 844.5,121.5 844.5,119.5C 846.167,119.5 847.833,119.5 849.5,119.5C 847.784,126.756 844.117,132.923 838.5,138C 837.391,138.638 836.225,139.138 835,139.5C 832.563,138.346 830.063,137.846 827.5,138C 818.863,145.636 810.53,153.636 802.5,162C 798.702,165.186 794.368,166.186 789.5,165C 785.773,159.757 784.607,153.924 786,147.5C 787.42,143.072 788.92,138.739 790.5,134.5C 789.127,134.343 787.793,134.51 786.5,135C 764.773,147.478 745.273,162.978 728,181.5C 719.667,193.167 711.333,204.833 703,216.5C 700.919,217.333 698.752,217.333 696.5,216.5C 696.925,212.393 698.425,208.726 701,205.5C 705.853,198.468 711.186,191.802 717,185.5C 722.064,178.097 726.73,170.43 731,162.5C 744.436,134.194 755.103,104.86 763,74.5C 764.576,67.563 765.243,60.563 765,53.5C 760.707,51.9125 756.874,52.7458 753.5,56C 743.426,65.0674 735.259,75.5674 729,87.5C 717.516,109.618 708.182,132.618 701,156.5C 695.648,177.908 689.981,199.241 684,220.5C 682.746,224.085 680.413,226.418 677,227.5C 675.564,227.441 674.231,227.108 673,226.5C 669.656,220.967 667.823,214.967 667.5,208.5C 668.754,190.842 668.754,173.176 667.5,155.5C 667.814,146.769 668.647,138.102 670,129.5C 670.667,130.833 671.333,132.167 672,133.5C 672.277,125.464 672.943,117.464 674,109.5C 677.542,96.5439 680.875,83.5439 684,70.5C 685.167,68.1667 686.333,65.8333 687.5,63.5C 688.325,62.6143 689.325,62.281 690.5,62.5C 690.665,66.1817 690.499,69.8484 690,73.5C 683.156,94.7222 678.489,116.389 676,138.5C 675,139.833 674,139.833 673,138.5C 672.833,139.167 672.667,139.833 672.5,140.5C 672.466,166.799 672.633,193.132 673,219.5C 675.854,217.402 678.521,215.069 681,212.5C 688.779,175.166 699.779,138.833 714,103.5C 722.419,84.7657 733.586,67.9323 747.5,53C 764.005,39.7737 771.838,43.9404 771,65.5C 764.457,98.9122 753.123,130.579 737,160.5C 736.506,162.134 736.34,163.801 736.5,165.5C 742.868,160.642 748.868,155.142 754.5,149C 760.637,144.498 766.97,140.498 773.5,137C 782.503,132.501 791.169,127.501 799.5,122C 800.793,121.51 802.127,121.343 803.5,121.5C 798.914,129.009 795.081,137.009 792,145.5C 790.71,149.73 790.21,154.064 790.5,158.5C 793.39,158.722 796.057,158.055 798.5,156.5C 814.184,144.168 827.851,129.835 839.5,113.5C 844.004,110.41 849.004,108.577 854.5,108C 857.798,103.7 861.465,99.7002 865.5,96C 871.571,93.5 873.071,95.3334 870,101.5C 866.41,108.348 863.077,115.348 860,122.5C 859.768,121.263 859.268,120.263 858.5,119.5 Z"/></g>
<g><path style="opacity:1" fill="#006FEE" d="M 365.5,81.5 C 368.987,82.7454 371.987,84.7454 374.5,87.5C 373.167,88.1667 371.833,88.8333 370.5,89.5C 369.42,91.9962 368.086,94.3295 366.5,96.5C 365.808,95.9747 365.308,95.3081 365,94.5C 364.605,96.1786 364.772,97.8453 365.5,99.5C 362.773,110.235 360.773,110.068 359.5,99C 362.065,93.4132 364.065,87.5799 365.5,81.5 Z"/></g>
<g><path style="opacity:1" fill="#ffffff" d="M 580.5,93.5 C 581.634,95.9664 581.801,98.633 581,101.5C 573.755,115.9 568.089,130.9 564,146.5C 563.123,153.249 563.456,159.916 565,166.5C 577.867,155.311 588.867,142.644 598,128.5C 600.142,126.173 602.642,124.507 605.5,123.5C 605.035,127.062 603.868,130.395 602,133.5C 595.667,141.5 589.333,149.5 583,157.5C 577.988,163.458 571.988,167.792 565,170.5C 563.833,170.167 562.667,169.833 561.5,169.5C 559.241,165.391 557.575,161.057 556.5,156.5C 560.157,145.051 562.324,133.384 563,121.5C 558.833,127 554.667,132.5 550.5,138C 546.167,138.333 541.833,138.667 537.5,139C 532.442,145.054 527.108,150.721 521.5,156C 518.833,156.667 516.167,156.667 513.5,156C 512.299,155.097 511.465,153.931 511,152.5C 510.667,145.833 510.333,139.167 510,132.5C 509.529,130.754 508.862,129.087 508,127.5C 505.393,132.38 503.06,137.38 501,142.5C 498.646,152.582 495.979,162.582 493,172.5C 490.034,176.301 488.034,175.635 487,170.5C 486.483,159.474 486.483,148.474 487,137.5C 477.202,145.629 467.702,154.129 458.5,163C 451.859,168.229 446.692,167.062 443,159.5C 441.989,152.976 442.655,146.643 445,140.5C 447.826,134.178 451.159,128.178 455,122.5C 456.441,121.74 457.941,121.074 459.5,120.5C 460.023,123.509 459.523,126.509 458,129.5C 453.106,137.675 449.273,146.341 446.5,155.5C 449.6,158.445 452.933,158.778 456.5,156.5C 467.884,146.073 479.05,135.406 490,124.5C 491.796,120.317 493.129,115.984 494,111.5C 495.247,108.671 496.747,106.005 498.5,103.5C 500.395,105.867 500.895,108.534 500,111.5C 496.151,120.711 493.318,130.211 491.5,140C 491.935,144.242 492.769,148.409 494,152.5C 494.847,146.384 496.18,140.384 498,134.5C 501.97,124.562 506.47,114.896 511.5,105.5C 512.736,106.246 514.07,106.579 515.5,106.5C 514.834,115.828 514.167,125.162 513.5,134.5C 513.639,140.562 514.306,146.562 515.5,152.5C 523.141,146.693 529.974,140.026 536,132.5C 540.593,125.405 545.76,118.738 551.5,112.5C 556.155,111.002 560.822,109.502 565.5,108C 569.788,102.208 574.788,97.3745 580.5,93.5 Z"/></g>
<g><path style="opacity:1" fill="#ffffff" d="M 907.5,94.5 C 914.492,92.9843 917.658,95.651 917,102.5C 913.424,104.98 912.09,108.313 913,112.5C 920.433,109.87 927.933,107.37 935.5,105C 943.272,104.682 945.439,108.182 942,115.5C 941.667,114.833 941.333,114.167 941,113.5C 940.333,115.5 939.667,117.5 939,119.5C 932.985,125.348 927.152,131.348 921.5,137.5C 925.741,139.202 929.574,141.535 933,144.5C 940.516,137.991 948.349,131.824 956.5,126C 959.239,124.107 961.905,124.107 964.5,126C 959.162,132.833 952.495,138 944.5,141.5C 940.515,145.985 936.349,150.318 932,154.5C 922.905,177.367 910.738,198.367 895.5,217.5C 891.606,221.692 887.106,225.026 882,227.5C 876.282,224.242 874.948,219.575 878,213.5C 890.604,190.885 906.271,170.551 925,152.5C 926.289,149.649 926.789,146.649 926.5,143.5C 923.09,143.457 919.757,143.957 916.5,145C 909.942,149.066 903.276,152.899 896.5,156.5C 895.369,154.926 895.202,153.259 896,151.5C 909.248,139.924 922.248,127.924 935,115.5C 935.309,114.234 935.809,113.067 936.5,112C 935.667,111.833 934.833,111.667 934,111.5C 920.979,116.262 908.146,121.429 895.5,127C 884.583,141.255 872.916,154.922 860.5,168C 857.419,170.024 854.086,170.691 850.5,170C 844.904,162.018 844.07,153.518 848,144.5C 848.333,145.833 848.667,147.167 849,148.5C 849.046,142.585 850.046,136.919 852,131.5C 853.568,139.421 853.901,147.421 853,155.5C 852.29,156.973 851.124,157.64 849.5,157.5C 851.794,166.068 855.627,167.068 861,160.5C 869.624,149.54 878.624,138.874 888,128.5C 887.919,124.403 887.086,120.403 885.5,116.5C 890.524,106.809 897.857,99.476 907.5,94.5 Z"/></g>
<g><path style="opacity:1" fill="#ffffff" d="M 815.5,94.5 C 815.769,102.61 812.269,108.943 805,113.5C 804.564,107.031 806.898,101.698 812,97.5C 812.667,98.1667 813.333,98.8333 814,99.5C 814.608,97.8455 815.108,96.1789 815.5,94.5 Z"/></g>
<g><path style="opacity:1" fill="#ffffff" d="M 471.5,94.5 C 472.634,96.9664 472.801,99.633 472,102.5C 469.741,104.246 468.408,106.58 468,109.5C 460.267,115.923 458.6,114.589 463,105.5C 464.667,103.833 466.333,102.167 468,100.5C 468.333,100.833 468.667,101.167 469,101.5C 469.384,98.9398 470.217,96.6064 471.5,94.5 Z"/></g>
<g><path style="opacity:1" fill="#006FEE" d="M 904.5,102.5 C 905.833,102.5 907.167,102.5 908.5,102.5C 906.381,111.289 901.048,117.289 892.5,120.5C 889.049,120.363 888.549,119.03 891,116.5C 895.031,111.304 899.531,106.637 904.5,102.5 Z"/></g>
<g><path style="opacity:1" fill="#006FEE" d="M 556.5,115.5 C 562.038,118 561.705,119.667 555.5,120.5C 554.914,127.158 552.914,127.824 549.5,122.5C 551.548,119.785 553.882,117.452 556.5,115.5 Z"/></g>
<g><path style="opacity:1" fill="#006FEE" d="M 302.5,115.5 C 306.395,116.285 307.228,118.285 305,121.5C 301.072,120.222 300.239,118.222 302.5,115.5 Z"/></g>
<g><path style="opacity:1" fill="#006FEE" d="M 310.5,116.5 C 311.978,116.238 313.311,116.571 314.5,117.5C 315.374,119.747 315.708,122.08 315.5,124.5C 314.167,124.5 312.833,124.5 311.5,124.5C 310.908,121.873 310.575,119.206 310.5,116.5 Z"/></g>
<g><path style="opacity:1" fill="#006FEE" d="M 387.5,115.5 C 388.097,115.735 388.43,116.235 388.5,117C 386.9,122.269 384.066,126.769 380,130.5C 378.578,127.97 378.245,125.303 379,122.5C 381.464,119.519 384.297,117.186 387.5,115.5 Z"/></g>
<g><path style="opacity:1" fill="#006FEE" d="M 564.5,116.5 C 565.5,116.5 566.5,116.5 567.5,116.5C 567.175,124.598 565.842,125.098 563.5,118C 564.056,117.617 564.389,117.117 564.5,116.5 Z"/></g>
<g><path style="opacity:1" fill="#006FEE" d="M 298.5,119.5 C 300.439,120.014 301.439,121.347 301.5,123.5C 298.845,126.799 296.679,130.466 295,134.5C 293.855,131.568 293.022,128.568 292.5,125.5C 293.833,125.5 295.167,125.5 296.5,125.5C 296.604,123.297 297.27,121.297 298.5,119.5 Z"/></g>
<g><path style="opacity:1" fill="#ffffff" d="M 858.5,119.5 C 859.099,125.853 857.932,131.853 855,137.5C 853.561,132.238 853.228,126.904 854,121.5C 855.47,120.733 856.97,120.067 858.5,119.5 Z"/></g>
<g><path style="opacity:1" fill="#006FEE" d="M 547.5,123.5 C 551.255,125.877 551.421,128.544 548,131.5C 546.187,128.922 546.02,126.255 547.5,123.5 Z"/></g>
<g><path style="opacity:1" fill="#ffffff" d="M 432.5,158.5 C 433.285,160.374 433.952,162.374 434.5,164.5C 433.698,165.952 433.198,167.618 433,169.5C 432.501,165.848 432.335,162.182 432.5,158.5 Z"/></g>
<g><path style="opacity:1" fill="#006FEE" d="M 915.5,169.5 C 916.83,172.44 916.663,175.44 915,178.5C 914.069,176.541 913.236,174.541 912.5,172.5C 913.34,171.265 914.34,170.265 915.5,169.5 Z"/></g>
<g><path style="opacity:1" fill="#006FEE" d="M 887.5,218.5 C 885.585,218.784 883.919,218.451 882.5,217.5C 887.937,207.19 894.104,197.19 901,187.5C 904.511,183.127 908.011,178.794 911.5,174.5C 912.823,177.913 912.656,181.247 911,184.5C 903.897,196.385 896.064,207.718 887.5,218.5 Z"/></g>
<g><path style="opacity:1" fill="#ffffff" d="M 882.5,217.5 C 883.919,218.451 885.585,218.784 887.5,218.5C 885.307,219.797 882.973,219.797 880.5,218.5C 880.957,217.702 881.624,217.369 882.5,217.5 Z"/></g>
<g><path style="opacity:1" fill="#ffffff" d="M 855.5,309.5 C 856.5,309.5 857.5,309.5 858.5,309.5C 858.5,311.167 858.5,312.833 858.5,314.5C 853.787,314.512 852.787,312.846 855.5,309.5 Z"/></g>
<g><path style="opacity:1" fill="#ffffff" d="M 365.5,310.5 C 368.187,310.336 370.854,310.503 373.5,311C 370.848,312.153 368.848,313.987 367.5,316.5C 368.313,317.814 369.313,318.981 370.5,320C 386.152,327.452 390.319,338.952 383,354.5C 376.6,362.301 368.433,365.134 358.5,363C 342.637,352.876 340.304,340.209 351.5,325C 355.808,322.012 360.475,319.845 365.5,318.5C 365.5,315.833 365.5,313.167 365.5,310.5 Z"/></g>
<g><path style="opacity:1" fill="#ffffff" d="M 115.5,320.5 C 121.987,319.346 128.654,319.179 135.5,320C 149.629,327.104 150.962,336.104 139.5,347C 136.318,348.631 132.985,349.297 129.5,349C 132.333,346.167 135.167,343.333 138,340.5C 140.782,331.396 137.782,325.396 129,322.5C 127.674,322.755 126.674,323.422 126,324.5C 125.333,334.833 125.333,345.167 126,355.5C 127.643,357.977 129.476,360.31 131.5,362.5C 126.198,363.663 120.864,363.829 115.5,363C 119.763,356.53 121.43,349.363 120.5,341.5C 121.465,333.756 119.798,326.756 115.5,320.5 Z"/></g>
<g><path style="opacity:1" fill="#ffffff" d="M 185.5,319.5 C 191.613,318.41 196.779,320.077 201,324.5C 201.667,327.167 201.667,329.833 201,332.5C 196.952,328.945 192.785,325.611 188.5,322.5C 181.497,326.02 180.83,330.52 186.5,336C 190.993,338.079 195.326,340.412 199.5,343C 206.002,349.235 205.669,355.235 198.5,361C 190.605,365.074 183.439,364.24 177,358.5C 175.748,355.986 175.248,353.32 175.5,350.5C 177.806,350.993 180.139,351.326 182.5,351.5C 182.744,359.795 186.744,362.295 194.5,359C 198.057,355.818 198.391,352.318 195.5,348.5C 187.066,346.212 180.9,341.212 177,333.5C 176.516,331.087 176.85,328.754 178,326.5C 180.396,323.933 182.896,321.6 185.5,319.5 Z"/></g>
<g><path style="opacity:1" fill="#ffffff" d="M 235.5,320.5 C 239.298,319.517 243.298,319.183 247.5,319.5C 245.837,334.228 246.17,348.895 248.5,363.5C 244.116,363.826 239.783,363.492 235.5,362.5C 236.609,360.615 237.443,358.615 238,356.5C 238.667,347.5 238.667,338.5 238,329.5C 237.594,326.258 236.761,323.258 235.5,320.5 Z"/></g>
<g><path style="opacity:1" fill="#ffffff" d="M 296.5,319.5 C 302.647,318.812 308.314,320.145 313.5,323.5C 314.657,326.784 314.824,330.118 314,333.5C 310.21,329.031 305.876,325.364 301,322.5C 294.638,323.195 290.305,326.529 288,332.5C 283.651,349.657 290.151,359.491 307.5,362C 293.691,366.012 284.525,361.179 280,347.5C 277.821,333.536 283.321,324.203 296.5,319.5 Z"/></g>
<g><path style="opacity:1" fill="#ffffff" d="M 416.5,320.5 C 420.298,319.517 424.298,319.183 428.5,319.5C 427.326,333.177 427.326,346.844 428.5,360.5C 431.941,360.699 435.274,360.199 438.5,359C 440.907,356.715 443.407,354.549 446,352.5C 447.095,356.557 446.262,360.057 443.5,363C 434.482,363.832 425.482,363.665 416.5,362.5C 417.333,360.833 418.167,359.167 419,357.5C 419.667,347.833 419.667,338.167 419,328.5C 418.721,325.543 417.887,322.877 416.5,320.5 Z"/></g>
<g><path style="opacity:1" fill="#ffffff" d="M 490.5,319.5 C 505.823,319.324 514.49,326.824 516.5,342C 513.144,360.677 502.477,367.011 484.5,361C 471.222,349.863 470.222,337.863 481.5,325C 484.564,323.141 487.564,321.308 490.5,319.5 Z"/></g>
<g><path style="opacity:1" fill="#ffffff" d="M 561.5,319.5 C 568.306,318.692 574.639,320.025 580.5,323.5C 581.657,326.784 581.824,330.118 581,333.5C 577.464,330.299 574.297,326.799 571.5,323C 567.705,322.163 564.039,322.496 560.5,324C 550.249,332.812 548.749,342.979 556,354.5C 560.46,359.163 565.96,361.163 572.5,360.5C 574.28,354.357 573.614,348.523 570.5,343C 574.395,341.734 578.395,341.234 582.5,341.5C 582.789,347.245 582.289,352.912 581,358.5C 574.175,363.034 566.675,364.534 558.5,363C 545.942,356.336 541.776,346.17 546,332.5C 549.234,325.758 554.401,321.425 561.5,319.5 Z"/></g>
<g><path style="opacity:1" fill="#ffffff" d="M 735.5,319.5 C 738.187,319.336 740.854,319.503 743.5,320C 747.165,321.278 750.832,322.444 754.5,323.5C 754.436,327.22 753.936,330.886 753,334.5C 749.616,329.615 745.45,325.615 740.5,322.5C 730.724,324.778 726.057,330.945 726.5,341C 727.405,354.567 734.739,361.234 748.5,361C 739.238,365.401 731.071,363.901 724,356.5C 713.843,339.806 717.676,327.473 735.5,319.5 Z"/></g>
<g><path style="opacity:1" fill="#ffffff" d="M 787.5,319.5 C 791.5,319.5 795.5,319.5 799.5,319.5C 799.186,322.947 798.352,326.28 797,329.5C 796.08,339.242 796.413,348.908 798,358.5C 799.126,359.944 800.626,360.61 802.5,360.5C 807.309,358.845 811.809,356.512 816,353.5C 816.603,356.656 816.103,359.656 814.5,362.5C 805.167,363.833 795.833,363.833 786.5,362.5C 787.919,360.664 789.086,358.664 790,356.5C 791.28,343.961 790.447,331.628 787.5,319.5 Z"/></g>
<g><path style="opacity:1" fill="#ffffff" d="M 847.5,318.5 C 851.167,318.5 854.833,318.5 858.5,318.5C 855.621,330.651 854.788,342.984 856,355.5C 857.136,358.096 857.969,360.763 858.5,363.5C 854.116,363.826 849.783,363.492 845.5,362.5C 846.942,359.95 848.108,357.284 849,354.5C 849.667,346.167 849.667,337.833 849,329.5C 848.025,326.24 846.858,323.073 845.5,320C 846.416,319.722 847.082,319.222 847.5,318.5 Z"/></g>
<g><path style="opacity:1" fill="#ffffff" d="M 891.5,320.5 C 893.628,319.371 895.961,319.204 898.5,320C 906.43,328.594 913.597,337.76 920,347.5C 926.878,349.747 929.378,354.414 927.5,361.5C 924.675,361.919 922.509,360.919 921,358.5C 914.379,349.544 907.379,340.877 900,332.5C 898.437,340.087 898.104,347.754 899,355.5C 899.375,358 900.208,360.333 901.5,362.5C 898.554,363.655 895.554,363.821 892.5,363C 893.714,360.649 894.548,358.149 895,355.5C 895.667,346.5 895.667,337.5 895,328.5C 894.058,325.626 892.891,322.96 891.5,320.5 Z"/></g>
<g><path style="opacity:1" fill="#ffffff" d="M 921.5,319.5 C 924.5,319.5 927.5,319.5 930.5,319.5C 930.5,322.5 930.5,325.5 930.5,328.5C 927.482,328.296 924.482,327.963 921.5,327.5C 921.5,324.833 921.5,322.167 921.5,319.5 Z"/></g>
<g><path style="opacity:1" fill="#ffffff" d="M 963.5,319.5 C 967.833,319.5 972.167,319.5 976.5,319.5C 975.908,322.691 974.741,325.691 973,328.5C 972.333,337.5 972.333,346.5 973,355.5C 973.765,358.196 974.932,360.696 976.5,363C 971.798,363.828 967.131,363.662 962.5,362.5C 966.746,356.35 968.412,349.517 967.5,342C 967.333,338.5 967.167,335 967,331.5C 965.537,327.577 964.37,323.577 963.5,319.5 Z"/></g>
<g><path style="opacity:1" fill="#ffffff" d="M 1022.5,319.5 C 1029.39,318.655 1035.73,320.155 1041.5,324C 1042.99,326.621 1043.66,329.455 1043.5,332.5C 1037.8,332.968 1034.63,330.302 1034,324.5C 1028.48,321.398 1023.48,322.065 1019,326.5C 1012.08,335.616 1011.75,344.949 1018,354.5C 1023.2,358.349 1029.03,360.849 1035.5,362C 1021.87,366.436 1012.71,361.936 1008,348.5C 1004.93,334.645 1009.76,324.978 1022.5,319.5 Z"/></g>
<g><path style="opacity:1" fill="#ffffff" d="M 633.5,320.5 C 640.964,334.363 647.964,348.529 654.5,363C 650.514,363.499 646.514,363.666 642.5,363.5C 644.168,358.667 643.501,354.167 640.5,350C 634.484,349.501 628.484,349.668 622.5,350.5C 622.437,355.203 622.771,359.87 623.5,364.5C 620.086,364.264 616.753,363.598 613.5,362.5C 615.337,361.162 617.003,359.662 618.5,358C 619.877,351.869 622.044,346.036 625,340.5C 625.813,342.436 626.313,344.436 626.5,346.5C 630.555,346.824 634.555,346.491 638.5,345.5C 637.235,342.204 636.068,338.871 635,335.5C 629.537,331.215 629.037,326.215 633.5,320.5 Z"/></g>
<g><path style="opacity:1" fill="#ffffff" d="M 1090.5,321.5 C 1092.07,321.937 1093.24,322.937 1094,324.5C 1099.56,337.286 1105.39,349.953 1111.5,362.5C 1107.5,363.833 1103.5,363.833 1099.5,362.5C 1101.88,358.007 1101.21,353.84 1097.5,350C 1091.48,349.501 1085.48,349.668 1079.5,350.5C 1080.29,354.785 1080.63,359.119 1080.5,363.5C 1077.43,363.817 1074.43,363.484 1071.5,362.5C 1075.48,355.044 1078.98,347.377 1082,339.5C 1083.35,341.594 1083.85,343.927 1083.5,346.5C 1087.55,346.824 1091.55,346.491 1095.5,345.5C 1094.73,342.49 1093.9,339.49 1093,336.5C 1090.76,333.926 1088.92,331.092 1087.5,328C 1088.38,325.747 1089.38,323.581 1090.5,321.5 Z"/></g>
<g><path xmlns="http://www.w3.org/2000/svg" style="opacity:1" fill="#006FEE" d="M 362.5,322.5 C 377.352,327.196 382.518,337.196 378,352.5C 367.33,363.754 358.663,362.088 352,347.5C 348.923,336.329 352.423,327.995 362.5,322.5 Z"/></g>
<g><path style="opacity:1" fill="#006FEE" d="M 490.5,322.5 C 500.036,323.192 506.203,328.192 509,337.5C 511.247,347.458 508.08,354.958 499.5,360C 490.283,360.138 484.45,355.638 482,346.5C 479.423,336.386 482.257,328.386 490.5,322.5 Z"/></g>
</svg>